# xmcd
#
# Track frame offsets: 
#        150
#        74400
#        103650
#        130125
#        161175
#        182625
#        198225
#        216900
#        236325
#        277500
#        298200
#        318300
#        331725
#        342525
#
# Disc length: 4739 seconds
#
# Revision: 0
# Processed by: cddbd v1.5.2PL0 Copyright (c) Steve Scherf et al.
# Submitted via: ExactAudioCopy v1.3
#
DISCID=d412810e
DTITLE=Various Artist - 9 x 14 Blues
DYEAR=2012
DGENRE=Blues
TTITLE0=Robert Noll Blues Mission - Devil Man Boogie
TTITLE1=Robert Noll Blues Mission - Everybody Wants To Go To Heaven
TTITLE2=The Alligators - Long Way Down
TTITLE3=Count Bracey and The Pleasuretones - Your Mans In Jail
TTITLE4=John  Latini - The Blues Make Me Feel Good
TTITLE5=John Sinclair and Planet D Nonet - Struttin' With Some Barbeque
TTITLE6=The Billy Davis Rhythm Machine - Blackballed
TTITLE7=Crossroads Blues Band - Bam!
TTITLE8=Roni Collins - If Trouble Was Money
TTITLE9=Laith Al Saddi - No One Left To Blame
TTITLE10=The Boa Constrictors - Hurricane
TTITLE11=The Flying Crowbars - Gettin' In
TTITLE12=Mike Espy Group - P&G Shuffle
TTITLE13=Mike Espy Trio - Greenie's Blues
EXTD=
EXTT0=
EXTT1=
EXTT2=
EXTT3=
EXTT4=
EXTT5=
EXTT6=
EXTT7=
EXTT8=
EXTT9=
EXTT10=
EXTT11=
EXTT12=
EXTT13=
PLAYORDER=
